<svg xmlns="http://www.w3.org/2000/svg" width="800" height="450" viewBox="0 0 800 450" role="img" aria-label="drift interface preview"><defs>
  <linearGradient id="kg" x1="0" y1="0" x2="1" y2="0"><stop offset="0" stop-color="#7c8cf8"/><stop offset="1" stop-color="#34d3ee"/></linearGradient>
  <linearGradient id="ig" x1="0" y1="1" x2="1" y2="0"><stop offset="0" stop-color="#f09433"/><stop offset="0.5" stop-color="#dc2743"/><stop offset="1" stop-color="#bc1888"/></linearGradient>
</defs><rect x="0" y="0" width="800" height="450" rx="0" fill="#0b0e13"/><rect x="0" y="0" width="150" height="450" rx="0" fill="#0e1219"/><line x1="150" y1="0" x2="150" y2="450" stroke="#222b39" stroke-width="1" stroke-linecap="round"/><rect x="20" y="22" width="26" height="26" rx="7" fill="#3b82f6"/><rect x="54" y="30" width="62" height="8" rx="4" fill="#e8edf4"/><rect x="14" y="70" width="122" height="34" rx="9" fill="#3b82f622"/><rect x="26" y="84" width="82" height="7" rx="4" fill="#3b82f6"/><rect x="26" y="118" width="78" height="7" rx="4" fill="#222b39"/><rect x="26" y="152" width="78" height="7" rx="4" fill="#222b39"/><rect x="26" y="186" width="78" height="7" rx="4" fill="#222b39"/><rect x="26" y="220" width="78" height="7" rx="4" fill="#222b39"/><rect x="26" y="254" width="78" height="7" rx="4" fill="#222b39"/><rect x="176" y="32" width="168" height="14" rx="4" fill="#e8edf4"/><rect x="176" y="56" width="104" height="9" rx="4" fill="#5f6b7e"/><circle cx="636" cy="45" r="8" fill="#222b39"/><circle cx="664" cy="45" r="8" fill="#222b39"/><rect x="694" y="30" width="90" height="30" rx="8" fill="#3b82f6"/><rect x="176" y="92" width="138" height="104" rx="10" fill="#121722"/><rect x="176.50" y="92.50" width="137.00" height="103.00" rx="10" fill="none" stroke="#20293a" stroke-width="1"/><rect x="192" y="114" width="58" height="7" rx="4" fill="#5f6b7e"/><rect x="192" y="132" width="52" height="22" rx="5" fill="#3b82f6"/><rect x="192" y="168" width="74" height="7" rx="4" fill="#222b39"/><rect x="330" y="92" width="138" height="104" rx="10" fill="#121722"/><rect x="330.50" y="92.50" width="137.00" height="103.00" rx="10" fill="none" stroke="#20293a" stroke-width="1"/><rect x="346" y="114" width="58" height="7" rx="4" fill="#5f6b7e"/><rect x="346" y="132" width="52" height="22" rx="5" fill="#e8edf4"/><rect x="346" y="168" width="74" height="7" rx="4" fill="#222b39"/><rect x="484" y="92" width="138" height="104" rx="10" fill="#121722"/><rect x="484.50" y="92.50" width="137.00" height="103.00" rx="10" fill="none" stroke="#20293a" stroke-width="1"/><rect x="500" y="114" width="58" height="7" rx="4" fill="#5f6b7e"/><rect x="500" y="132" width="52" height="22" rx="5" fill="#e8edf4"/><rect x="500" y="168" width="74" height="7" rx="4" fill="#222b39"/><rect x="638" y="92" width="138" height="104" rx="10" fill="#121722"/><rect x="638.50" y="92.50" width="137.00" height="103.00" rx="10" fill="none" stroke="#20293a" stroke-width="1"/><rect x="654" y="114" width="58" height="7" rx="4" fill="#5f6b7e"/><rect x="654" y="132" width="52" height="22" rx="5" fill="#e8edf4"/><rect x="654" y="168" width="74" height="7" rx="4" fill="#222b39"/><rect x="176" y="212" width="300" height="140" rx="10" fill="#121722"/><rect x="176.50" y="212.50" width="299.00" height="139.00" rx="10" fill="none" stroke="#20293a" stroke-width="1"/><rect x="192" y="234" width="120" height="9" rx="4" fill="#5f6b7e"/><rect x="196" y="282" width="22" height="40" rx="3" fill="#222b39"/><rect x="240" y="258" width="22" height="64" rx="3" fill="#3b82f6"/><rect x="284" y="292" width="22" height="30" rx="3" fill="#222b39"/><rect x="328" y="268" width="22" height="54" rx="3" fill="#3b82f6"/><rect x="372" y="248" width="22" height="74" rx="3" fill="#222b39"/><rect x="416" y="276" width="22" height="46" rx="3" fill="#3b82f6"/><rect x="500" y="212" width="300" height="140" rx="10" fill="#121722"/><rect x="500.50" y="212.50" width="299.00" height="139.00" rx="10" fill="none" stroke="#20293a" stroke-width="1"/><rect x="516" y="234" width="120" height="9" rx="4" fill="#5f6b7e"/><circle cx="528" cy="264" r="7" fill="#222b39"/><rect x="546" y="260" width="150" height="8" rx="4" fill="#222b39"/><rect x="712" y="260" width="60" height="8" rx="4" fill="#3b82f6"/><circle cx="528" cy="294" r="7" fill="#222b39"/><rect x="546" y="290" width="150" height="8" rx="4" fill="#222b39"/><rect x="712" y="290" width="60" height="8" rx="4" fill="#222b39"/><circle cx="528" cy="324" r="7" fill="#222b39"/><rect x="546" y="320" width="150" height="8" rx="4" fill="#222b39"/><rect x="712" y="320" width="60" height="8" rx="4" fill="#222b39"/><rect x="176" y="364" width="624" height="62" rx="10" fill="#121722"/><rect x="176.50" y="364.50" width="623.00" height="61.00" rx="10" fill="none" stroke="#20293a" stroke-width="1"/><rect x="196" y="384" width="90" height="8" rx="4" fill="#5f6b7e"/><rect x="196" y="402" width="220" height="7" rx="4" fill="#222b39"/></svg>