<svg xmlns="http://www.w3.org/2000/svg" width="800" height="450" viewBox="0 0 800 450" role="img" aria-label="lms interface preview"><defs>
  <linearGradient id="kg" x1="0" y1="0" x2="1" y2="0"><stop offset="0" stop-color="#7c8cf8"/><stop offset="1" stop-color="#34d3ee"/></linearGradient>
  <linearGradient id="ig" x1="0" y1="1" x2="1" y2="0"><stop offset="0" stop-color="#f09433"/><stop offset="0.5" stop-color="#dc2743"/><stop offset="1" stop-color="#bc1888"/></linearGradient>
</defs><rect x="0" y="0" width="800" height="450" rx="0" fill="#2b2431"/><rect x="150" y="70" width="500" height="310" rx="16" fill="#e7e8ea"/><path d="M166 70 H400 V380 H166 A16 16 0 0 1 150 364 V86 A16 16 0 0 1 166 70 Z" fill="#5b1a3a"/><rect x="184" y="110" width="24" height="24" rx="6" fill="#7a2b50"/><rect x="216" y="116" width="90" height="10" rx="4" fill="#f0e4ec"/><rect x="184" y="218" width="150" height="20" rx="5" fill="#e9d7e2"/><rect x="184" y="246" width="120" height="20" rx="5" fill="#e9d7e2"/><rect x="184" y="284" width="180" height="7" rx="4" fill="#c9a7bb"/><rect x="184" y="298" width="150" height="7" rx="4" fill="#c9a7bb"/><rect x="432" y="120" width="140" height="16" rx="4" fill="#2a2430"/><rect x="432" y="144" width="176" height="8" rx="4" fill="#8a8390"/><rect x="432" y="178" width="186" height="30" rx="6" fill="#fff"/><rect x="432.50" y="178.50" width="185.00" height="29.00" rx="6" fill="none" stroke="#d3d6db" stroke-width="1"/><circle cx="448" cy="193" r="5" fill="#8a8390"/><rect x="432" y="224" width="186" height="30" rx="6" fill="#fff"/><rect x="432.50" y="224.50" width="185.00" height="29.00" rx="6" fill="none" stroke="#d3d6db" stroke-width="1"/><circle cx="448" cy="239" r="5" fill="#8a8390"/><rect x="432" y="268" width="186" height="34" rx="8" fill="#6b1f43"/></svg>