<svg xmlns="http://www.w3.org/2000/svg" width="800" height="450" viewBox="0 0 800 450" role="img" aria-label="seo interface preview"><defs>
  <linearGradient id="kg" x1="0" y1="0" x2="1" y2="0"><stop offset="0" stop-color="#7c8cf8"/><stop offset="1" stop-color="#34d3ee"/></linearGradient>
  <linearGradient id="ig" x1="0" y1="1" x2="1" y2="0"><stop offset="0" stop-color="#f09433"/><stop offset="0.5" stop-color="#dc2743"/><stop offset="1" stop-color="#bc1888"/></linearGradient>
</defs><rect x="0" y="0" width="800" height="450" rx="0" fill="#f6f7fb"/><rect x="0" y="0" width="150" height="450" rx="0" fill="#ffffff"/><line x1="150" y1="0" x2="150" y2="450" stroke="#e6e8f0" stroke-width="1" stroke-linecap="round"/><rect x="20" y="22" width="26" height="26" rx="7" fill="#6a5af9"/><rect x="54" y="30" width="64" height="8" rx="4" fill="#1c1f2a"/><rect x="14" y="70" width="122" height="32" rx="9" fill="#6a5af91f"/><rect x="26" y="82" width="80" height="7" rx="4" fill="#6a5af9"/><rect x="26" y="114" width="76" height="7" rx="4" fill="#e6e8f0"/><rect x="26" y="146" width="76" height="7" rx="4" fill="#e6e8f0"/><rect x="26" y="178" width="76" height="7" rx="4" fill="#e6e8f0"/><rect x="26" y="210" width="76" height="7" rx="4" fill="#e6e8f0"/><rect x="26" y="242" width="76" height="7" rx="4" fill="#e6e8f0"/><rect x="176" y="30" width="150" height="14" rx="4" fill="#1c1f2a"/><rect x="176" y="54" width="100" height="9" rx="4" fill="#6b7180"/><rect x="600" y="28" width="96" height="30" rx="8" fill="#ffffff"/><rect x="600.50" y="28.50" width="95.00" height="29.00" rx="8" fill="none" stroke="#e6e8f0" stroke-width="1"/><rect x="704" y="28" width="80" height="30" rx="8" fill="#6a5af9"/><rect x="176" y="84" width="142" height="64" rx="10" fill="#ffffff"/><rect x="176.50" y="84.50" width="141.00" height="63.00" rx="10" fill="none" stroke="#e6e8f0" stroke-width="1"/><rect x="190" y="100" width="54" height="6" rx="3" fill="#6b7180"/><rect x="190" y="116" width="46" height="16" rx="4" fill="#1c1f2a"/><rect x="274" y="116" width="30" height="12" rx="4" fill="#22c58e"/><rect x="332" y="84" width="142" height="64" rx="10" fill="#ffffff"/><rect x="332.50" y="84.50" width="141.00" height="63.00" rx="10" fill="none" stroke="#e6e8f0" stroke-width="1"/><rect x="346" y="100" width="54" height="6" rx="3" fill="#6b7180"/><rect x="346" y="116" width="46" height="16" rx="4" fill="#1c1f2a"/><rect x="430" y="116" width="30" height="12" rx="4" fill="#f5566b"/><rect x="488" y="84" width="142" height="64" rx="10" fill="#ffffff"/><rect x="488.50" y="84.50" width="141.00" height="63.00" rx="10" fill="none" stroke="#e6e8f0" stroke-width="1"/><rect x="502" y="100" width="54" height="6" rx="3" fill="#6b7180"/><rect x="502" y="116" width="46" height="16" rx="4" fill="#1c1f2a"/><rect x="586" y="116" width="30" height="12" rx="4" fill="#22c58e"/><rect x="644" y="84" width="142" height="64" rx="10" fill="#ffffff"/><rect x="644.50" y="84.50" width="141.00" height="63.00" rx="10" fill="none" stroke="#e6e8f0" stroke-width="1"/><rect x="658" y="100" width="54" height="6" rx="3" fill="#6b7180"/><rect x="658" y="116" width="46" height="16" rx="4" fill="#1c1f2a"/><rect x="742" y="116" width="30" height="12" rx="4" fill="#f5566b"/><rect x="176" y="164" width="384" height="196" rx="10" fill="#ffffff"/><rect x="176.50" y="164.50" width="383.00" height="195.00" rx="10" fill="none" stroke="#e6e8f0" stroke-width="1"/><rect x="192" y="182" width="110" height="8" rx="4" fill="#6b7180"/><path d="M196,340 L196,320 L240,300 L284,308 L328,278 L372,286 L416,250 L460,262 L504,226 L540,234 L540,340 Z" fill="#6a5af9" fill-opacity="0.12"/><polyline points="196,320 240,300 284,308 328,278 372,286 416,250 460,262 504,226 540,234" fill="none" stroke="#6a5af9" stroke-width="2.5" stroke-linecap="round" stroke-linejoin="round"/><circle cx="196" cy="320" r="3" fill="#6a5af9"/><circle cx="284" cy="308" r="3" fill="#6a5af9"/><circle cx="372" cy="286" r="3" fill="#6a5af9"/><circle cx="460" cy="262" r="3" fill="#6a5af9"/><circle cx="540" cy="234" r="3" fill="#6a5af9"/><rect x="576" y="164" width="224" height="196" rx="10" fill="#ffffff"/><rect x="576.50" y="164.50" width="223.00" height="195.00" rx="10" fill="none" stroke="#e6e8f0" stroke-width="1"/><rect x="592" y="182" width="90" height="8" rx="4" fill="#6b7180"/><rect x="592" y="202" width="100" height="8" rx="4" fill="#1c1f2a"/><rect x="722" y="197" width="54" height="16" rx="5" fill="#22c58e22"/><rect x="730" y="202" width="38" height="7" rx="3" fill="#22c58e"/><rect x="592" y="232" width="100" height="8" rx="4" fill="#e6e8f0"/><rect x="722" y="227" width="54" height="16" rx="5" fill="#22c58e22"/><rect x="730" y="232" width="38" height="7" rx="3" fill="#22c58e"/><rect x="592" y="262" width="100" height="8" rx="4" fill="#e6e8f0"/><rect x="722" y="257" width="54" height="16" rx="5" fill="#eef0f6"/><rect x="730" y="262" width="38" height="7" rx="3" fill="#6b7180"/><rect x="592" y="292" width="100" height="8" rx="4" fill="#e6e8f0"/><rect x="722" y="287" width="54" height="16" rx="5" fill="#eef0f6"/><rect x="730" y="292" width="38" height="7" rx="3" fill="#6b7180"/><rect x="592" y="322" width="100" height="8" rx="4" fill="#e6e8f0"/><rect x="722" y="317" width="54" height="16" rx="5" fill="#eef0f6"/><rect x="730" y="322" width="38" height="7" rx="3" fill="#6b7180"/><rect x="176" y="368" width="624" height="58" rx="10" fill="#ffffff"/><rect x="176.50" y="368.50" width="623.00" height="57.00" rx="10" fill="none" stroke="#e6e8f0" stroke-width="1"/><rect x="192" y="388" width="90" height="8" rx="4" fill="#6b7180"/><rect x="192" y="404" width="220" height="7" rx="4" fill="#e6e8f0"/></svg>