<svg id="Layer_1" data-name="Layer 1" xmlns="http://www.w3.org/2000/svg" viewBox="0 0 32 32"><title>instagram-01</title><circle cx="16" cy="16" r="4.5" style="fill:#abb2bf"/><path d="M20.7,8.2H11.3a3.1,3.1,0,0,0-3.1,3.1v9.4a3.1,3.1,0,0,0,3.1,3.1h9.4a3.1,3.1,0,0,0,3.1-3.1V11.3A3.1,3.1,0,0,0,20.7,8.2ZM16,21.7A5.7,5.7,0,1,1,21.7,16,5.6,5.6,0,0,1,16,21.7Zm5.6-10.4a.9.9,0,1,1,.9-.9A.9.9,0,0,1,21.6,11.3Z" style="fill:#abb2bf;fill-rule:evenodd"/><path d="M24.2,3.7H7.8A4.1,4.1,0,0,0,3.7,7.8V24.2a4.1,4.1,0,0,0,4.1,4.1H24.2a4.1,4.1,0,0,0,4.1-4.1V7.8A4.1,4.1,0,0,0,24.2,3.7Zm.7,17a4.2,4.2,0,0,1-4.2,4.2H11.3a4.2,4.2,0,0,1-4.2-4.2V11.3a4.2,4.2,0,0,1,4.2-4.2h9.4a4.2,4.2,0,0,1,4.2,4.2Z" style="fill:#abb2bf;fill-rule:evenodd"/></svg>